<svg xmlns="http://www.w3.org/2000/svg" width="20" height="20" viewBox="0 0 20 20" fill="none" stroke="currentColor" stroke-width="1.6" stroke-linecap="round" stroke-linejoin="round">
  <!-- document with fold -->
  <path d="M6 3h6l3 3v8a3 3 0 0 1-3 3H6a3 3 0 0 1-3-3V6a3 3 0 0 1 3-3z"/>
  <path d="M12 3v3h3"/>
  <!-- simple tiny gear (center ~13.5,13.5) -->
  <circle cx="13.5" cy="13.5" r="1.7"/>
  <path d="M13.5 11.3v0.8M13.5 14.9v0.8M11.3 13.5h0.8M14.9 13.5h0.8M12.0 12.0l0.6 0.6M14.4 14.4l0.6 0.6M12.0 15.0l0.6-0.6M14.4 12.6l0.6-0.6"/>
</svg>
